<svg id="svg2" xmlns="http://www.w3.org/2000/svg" viewBox="0 0 460 180"><title>Artboard 1</title><g id="layer1"><path id="path2900" d="M69.12,157.32c-7.28-5.73-15.05-11.22-20.36-19a153.81,153.81,0,0,1-25.65-46C19.56,81.56,18.35,70,13.76,59.62c-4.79-7.53.82-15.77,9.07-18.16,3.67-.71,10.13-4.17,2.34-1.69-7,5.13-7.67-4.66-.5-5.28,4.89-.65,6.69-4.66,5-8.26-5.25-3.42,12.73-7.19,3.68-12.3C24,3.76,46.57,1.81,41,13.36c-1.34,8.88,15.8-1.63,11.83,8.63,4,4.93,15.13,1.12,14.86,8,5.89.4,7.91,5.36,13.43,5.74,5.73,2.59,16.11,4.62,18.06,11.08-5.68,4.5-18.84-9.29-19.47,3.16,1.72,18.4,1.28,37.35,8,54.86,3.18,10.61,10.9,19,17.87,27.22,6.67,8.09,15.7,13.79,24.91,18.58a102.67,102.67,0,0,0,25.59,7.92c3.57-2.73,9.87-12.88,15.44-8.6.26,4.81-11.05,10.06-.53,9.52,6.18-1.86,10.46,4.78,15.55-1.21,4.69,5.55,19.48-3.55,16.15,7.8-4.51,2.91-11.09,1.15-15.6,5.15-7.45-3.72-13.38,3.33-21.62,2.44A158.88,158.88,0,0,1,137.69,176c-15.23-1.2-30.78-1.71-45.27-7-8.16-2.37-16.13-7-23.3-11.67ZM82,162.89c8,3.45,15.76,7.08,24.5,8.17,13.86,1.93,28.17,4.89,42.07,2.19-6.29-2.84-12.8,1.11-19.07-2-7.52,1.62-15.59-.41-23.24-1.41-8.69-3.87-18.08-6.54-26.22-11.56-10.17-3.72,5.26,4.77,8,5.45,6.36,3.61-7-1.85-8.88-3.35-5.33-3-6-2.36-.53.67,1.1.65,2.19,1.32,3.35,1.87ZM66.82,152.17c7.72,2.86,0-5.43-3.57-4.95-1.57-2.72-6-4.44-2.87-5.9-5.61,1.95-5.88-7.41-8.52-6.07-5.94-1.87-2.31-8.52-9.38-12.59-.65-4.3-7-8-9.06-14.51-.9-3.32-7.21-12.85-3.33-4,3.3,8.54,9.11,15.85,13.94,23.15,3.75,7,8.18,14.22,15,18.56,2.3,2.21,4.53,5.6,7.78,6.29Zm34,14.36c3.16,2,18.47,4.37,8.88.82C108.13,167.69,92,162.78,100.84,166.54Zm-35-28.39c3.71,2.85,15,.36,5.68-1.7-4.23-2.25-13.75-3.79-7.26,1.36l1.57.34ZM101.5,154.8C107.22,152.53,95.93,153.69,101.5,154.8Zm5.34,2.16c6.16-3.68,4.13,8.62,10.44,1,6.23-4.55-5.38,5.62,2.3.81,5.55-3.71,13.76,1.76,18.94,3.55,3.73-.18,7.35,3.22,11.17,1.15,7.35-2-14.38-2.94-8.68-6.45-6.73,2-11.7-2.33-15-6.65-7.55-1.74-16.28-5.6-20-12.28-1.54-2.51,2.22.35-1.33-3.75-4.55-4-6.82-8.64-9.87-13.56-3.65-1.95-4.07-7.67-4.44-.19,0-4.72-4.4-7.9-5.49-6.58,0-4.55,4.74-2.27,1.41-5.63-.72-4.71-3.08-9.62-3.79-14.95-1.1-2.57-.16-8.06-3.77-2.25-1.32,6.14-.44-7.54,1.61-3,2.69-4.6-1-4.06-1.11-3.42,1.75-3.88,1.11-9.39-.46-7.29.93-4.12,1.47-15.15-1.4-13.19,1.74-4.3,3.3-19.69-4.25-13.83a32.07,32.07,0,0,0-10.86,2.36c7.85,4.33-.79,1.56-4,.87-.42,4-3.58,2.27-7.54,2.31,6.32.78-3.08,6.46-6.7,4.25-4.71,2.25,4.06,7.86.09,9.6.49,2.62-7.21-.94-6.6,5.1C32.92,73,36.86,82.12,39.14,79c7.77,2.1,5.47,6.9,5.67,11.45-1.27,2.65-6.25-6.24-1.11-5.83-4.05-6.59-4.49-2.38-7.85.68-.78.22,8.59,4.35,2.71,6.4,5.18.8,5.33,5.33,6.38,8.2,3.11,3.24,2.48-3.58,6.2.32-2.36-3.47-12.48-9.78-4.33-7.76,0-3.49-1.47-6.31,1-6.24,2.47-4.48-2.59,11,3,5.35,1.54-.67,1.93-4.48,4.7.36,4,4,1.46,6.84-4.23,3.21,1,3.45,7.6,4.68,6.37,10.08,1.31,4.74,3.15,3,4.75,2.72,1.26,4.61,2,1.22,2-1,5.75,1.23,4.4,4.63,6.2,7,4,1.79-5.67-12.12,1.13-4.18,7.15,6.46,2.68,9.15-3.74,8.12,4.06-.33,5.37,5.49,10.46,5.29,4.63,2.2,7.77,10.67-.22,7.15-2.77-2.5-12.58-5.58-4.57-.83C81.08,133,87,135,94.09,139.32c5.11,3.64,7.31,7.82,9.25,8.65-4.29,2-12.93-1.64-6.52-2.77-4-.73-8.5-2.75-4.67,2.23,3.26,2.72,11.55,2.43,13,2.74-1.26,2.77-3.42,3,.05,3.21-3.87,2.06,1.24,2.38,1.6,3.56Zm-7.92-22.37c-2.36-2.46-3-7.08-.42-3.06,1.31.52,4.19,7.54.42,3.06ZM58,92.46c-1.26-2.06-3.33-8.12-2.66-10,.6,3,6.4,13,2.84,4.12-3.93-7.41,4.7,2.4,5.59,4.25.41,1.84-2.43-.5-.5,3.81C59.72,89.77,61.15,97.39,58,92.46Zm-13-11c-3-3-5.13-5.68.14-1.83,2,.08-4.51-6.2.49-2C50.8,78.64,48.14,86.3,44.92,81.51ZM46.7,77c-8.65-7.7,10.87,4,1.41,1.43L46.7,77Zm24.78,14.4c-3.74-2.24-1-15.8.28-6.53,3.64-1.18-.2,4.79,2.51,4.73C73.84,93.34,72.63,94.69,71.48,91.37ZM48.39,74.45C42.84,66.78,64.54,82.2,52,76.39,50.64,76,49.05,75.92,48.39,74.45Zm.85-2.93c3.3-.71,13.68,5.8,4.15,1.86C52.33,72.21,50.08,72.74,49.24,71.52Zm2.46-2.3c1.35-2-3.57-8.92.71-2.49,1.85,1.47,5.36,2.46,2.26,3.08C59.54,74.1,53.48,71,51.7,69.22Zm21.52-3.54c-1.72-3,2.17-13.33,2.6-6.94-1.81,5-.52,7.77.74,1.09,2.33-5.26-.5,10.37-3.34,5.85Zm7.12,73.68c4.92,1.26,4.89-.76.45-1.37-2.39-2.22-9.93-4.58-3.18-.28.45,1.13,1.86,1.11,2.73,1.64ZM62.89,127.77c2.71,2,10.2,5.72,3.86.77,2.14-2.48-4.09-3.81-2-5.47-5.26-3.22-4.15-2.93-.46-2.83-6.32-2.82.91-2.61.57-4.06-2.44-.48-12.1-4.3-6.42.31-5.78-2.95-1.38,1.1-3.12.67-5.91-1.61,5.26,4.5-.94,3,3.39,2.69,9.13,6.88,1.43,2.84-1,1.46,5.51,3.67,7.11,4.78Zm19,8.76c2.88,2.56,13.25,1.88,3.5.32C83.91,134.71,76.19,135.23,81.85,136.53ZM34.34,104.62c-4.19-6-2.6-8.67-6.65-13.55-.76-3.73-6.93-12.2-3.19-3.23C27.93,93.09,29,101.22,34.34,104.62Zm14.05,2.69c4.12.92,16.46,10.14,9.18.64-3.73-1.1-1.49-10.22-5.3-8.61,2.55,4.26,2.1,6.08-3.26,3.39-6.74-3.29-3.79,1.63-2.47,3-1.79.41,2.37,1.56,1.85,1.59ZM29.62,92.49c.74-3-6.79-16.78-3.55-6.88C27.24,87.69,27.12,91.62,29.62,92.49Zm39.67,22.45C69.29,111.71,63.52,113.63,69.29,114.94Zm89.19,48.68c4.08-.83,13.37,2.07,14.87-1.08-5-.12-17.13-3.49-17.7.8l1.08.17,1.75.11h0ZM18.67,60.61c-.74-4.26-.64-11.74,6.47-9.21-9.49,1.88,6.57,11.79,4.54,4,4,.2,7.8-2.36,5.71,1.52,7.86-.87,13.31-7.68,20.9-6.73,5.91-.78,12.38-1.38,18.75-3.76,5.24-.38,10.28-6,7.41-9.36-7.14-.6-14.62.29-22.52,1.86-8.75,1.82-16.7,5.28-25.53,6.76-8.61,1.16,1.73,3.19-.73,3.64-4.49,1.56,5.36,2.61-.58,4.25-3.67-.7-7.48-2-5.92-5.82-8.24,1.07-15.49,4.49-9,12.88h.48ZM38.53,50.49c1.93-7.12,10.36,5.86,3.17.95A4.49,4.49,0,0,0,38.53,50.49Zm3.92-3.4c.25-3.28,8.11,1.73,1.3,1.18l-1.3-1.18Zm6.08-2.78c2.95-3.54,16.69-2.26,6.63-.35C52.47,41.94,50.4,45.17,48.53,44.32Zm17.93-2.76C66,31.88,75.37,45,66.46,41.55ZM191.18,163.68c4.44,0,13.45-1.38,3.79-1.37-1.52.24-8.83.19-3.79,1.37Zm-153-97.16c3.59-.25,5.62-4-.69-3.75-9.79-1,8.64,3.35-1.26,2.1C34.93,65.75,38.14,66.76,38.21,66.52Zm-5-28.38C39.6,36,48.37,33.5,51.39,39.21c-3.08-3.71-1.24-7.36,1.67-1.94,4.12,5.49,6.18-2.5,3.5-4.34,3.05,3.79,6.52,5.58,2,.24,4.87-5.85-9.74.77-13.06.7C43.94,34.59,29,37.67,33.18,38.14Zm3.76-7.2c3.66-2.76,12.65,1.64,6.88-2.74C43.26,27.7,31.18,31.52,36.94,30.94Zm13.33.55c4.28.11-1.85-5.75,3.25-3.1-.84-2.74-5.94-3.25-8.43-4.34C43.69,26.55,48,31.52,50.27,31.49ZM34.55,12.73c-4.86-6.34,9.13,1.07,4.2-5.57C34.6,3.85,30.61,10.88,34.55,12.73Z"/><g id="text3850"><path id="path2830" d="M202,39.06q-1.2,4.71-1.48,15.82,0,2.18-2,2.18a2.76,2.76,0,0,1-2.74-1.9,24.91,24.91,0,0,0-4-7.17,9.64,9.64,0,0,0-6-2.88q-4-.63-20-.63-3.66,0-4.78.77a2.47,2.47,0,0,0-.7,2.11V79.21q0,1.62,2,1.55,6.26-.07,18.14-.84a4.11,4.11,0,0,0,3.13-1.51q.81-1.23,1.58-6.36.49-2.81,3.3-2.18,2.39.49,2,2.18-2,9.56-1.27,24.89.07,1.83-2.32,2-2,.21-2.46-2.11-1.83-8.79-6.79-9.39a151.88,151.88,0,0,0-16.14-.6q-1.27,0-1.27.91v31.64q0,3.52,2.6,4.78,2,1.05,8.79,1.9,3.45.35,3,3-.42,2.32-6.19,1.83-16.66-1.34-27.49.14-3,.42-3-2.46,0-1.83,3-2.11,6.89-.77,6.89-12.09V54.18q0-4.64-1.65-7.14t-6.15-4.54q-2.81-1.27-2.11-3.45.35-1.34,1.13-1.48a12,12,0,0,1,3.73.28q4.43.7,20.88.7,19.41,0,33.54-.84,4.71-.28,4.71.77a2.32,2.32,0,0,1-.07.56Z"/><path id="path2832" d="M247.73,128.43q0,2.81-3.16,2.46a139.65,139.65,0,0,0-24,.28q-2.88.28-3.55-.14t-.67-2.32q0-1.69,3.83-2.85t3.83-6.93V55.31q0-5.7-1.65-8.37a10.71,10.71,0,0,0-5.8-4.15q-2.18-.77-2.18-2.18,0-2.11,3.16-3.16a44.37,44.37,0,0,0,9.91-4.78q4.22-2.53,5.34-2.53,2.6,0,2.6,3.59,0-.28-.28,7-.21,7-.14,13.71l.28,62.79q0,4.29,2.11,6.22t7.24,2.57Q247.73,126.39,247.73,128.43Z"/><path id="path2834" d="M311.86,123.72q0,1.48-5.38,4.46t-8.61,3A6.11,6.11,0,0,1,293,128.5q-2.11-2.67-3-2.67-.63,0-6.68,2.88a28,28,0,0,1-12.16,2.88,14.12,14.12,0,0,1-9.63-3.37,12.82,12.82,0,0,1-4.22-10.12q0-12.16,27.84-17.44,4.78-.91,4.85-3.87l.14-4.5q.42-11.53-10.2-11.53-3,0-5.73,5.41T266.51,92q-5.77.56-5.77-4.85,0-3.37,8.58-7.87a37.29,37.29,0,0,1,17.3-4.71q14.27,0,14.13,13.57l-.28,29q-.07,4.57,3.87,4.57a22.8,22.8,0,0,0,3-.35q2.18-.35,2.53-.35,2,0,2,2.74Zm-21.66-16q.07-1.76-.81-2.32a3.94,3.94,0,0,0-2.78-.21q-16.95,3-16.95,11t8.79,8.09a21.4,21.4,0,0,0,7.24-1.34q4.36-1.55,4.36-3.73Z"/><path id="path2836" d="M364.31,115.35a14.15,14.15,0,0,1-5.73,11.85q-5.73,4.39-15.64,4.39a63.36,63.36,0,0,1-13.22-1.41q-5.7-1.27-6.61-2.32-.56-1-.56-9.63,0-3.73,1.69-3.87t2.88,1.83q5.27,9.21,17,9.21,9.91,0,9.91-6.89a6.56,6.56,0,0,0-2.25-5.06q-2.46-2.32-9.56-5.41-10.27-4.57-13.71-8-3.73-3.66-3.73-9.84a13.74,13.74,0,0,1,5.84-11.81q5.41-4.08,14.48-4.08a54.78,54.78,0,0,1,10.41.91q5.06.91,5.27,2.25.56,3.94,2.32,11.39.21.91-2,1.48t-3.09-.77Q352.5,80.48,344,80.48q-9.63,0-9.63,6.19a6.61,6.61,0,0,0,2.6,5.48q2.32,1.76,10.9,5.48,9,3.87,12.23,7Q364.31,108.6,364.31,115.35Z"/><path id="path2838" d="M445.87,128q0,2.46-3.3,2.6-4.92.07-12.87.7-3.94.77-5.62-1a145.89,145.89,0,0,1-18.84-25,1.85,1.85,0,0,0-1.62-1.12q-1.2,0-4.15,2.11a5.7,5.7,0,0,0-3.3,5.2q0,2.39.14,6.89t2.25,5.91q1.48,1,6.82,1.55,3.3.42,3.3,2.46,0,1.62-.53,2a5.09,5.09,0,0,1-2.78.18q-7-.63-23.77.7-4.22.35-4.57-1.05a5.4,5.4,0,0,1-.14-1.41q0-2.18,4.29-3.3,3.87-1,3.87-9.07V54.88q0-5.77-1.12-8-1.55-2.88-6.47-4.5-2.32-.77-2.32-2.18,0-2,3.3-3.16a44.14,44.14,0,0,0,10.05-4.85q3.87-2.53,4.78-2.53,2.88,0,2.88,3.66,0-.49-.07,7Q396,45.39,396,54l.14,44q0,1.83,1,1.83t3.23-1.83q5.84-4.57,14.34-12,1.69-1.76,1.69-2.81,0-1.9-5.7-2.67a2.33,2.33,0,0,1-2.32-2.74q.21-2.46,2.46-2.11a122,122,0,0,0,14.77.77q6.75.07,13.43.07,2.18.07,2.18,2.6t-3.45,2.6a26.08,26.08,0,0,0-10.2,2.46q-6.68,3-14.27,10.62a1.27,1.27,0,0,0-.56,1.05q0,1,2.39,4.71,8.79,13.36,16.59,20.18,5,4.29,9.35,4.29a10.23,10.23,0,0,1,4,.46q.77.46.77,2.43Z"/></g></g></svg>